<?xml version="1.0" encoding="utf-8"?>
<!-- Generator: Adobe Illustrator 26.5.0, SVG Export Plug-In . SVG Version: 6.00 Build 0)  -->
<svg version="1.2" baseProfile="tiny" id="Layer_1" xmlns="http://www.w3.org/2000/svg" xmlns:xlink="http://www.w3.org/1999/xlink"
	 x="0px" y="0px" viewBox="0 0 72 72" overflow="visible" xml:space="preserve">
<g>
	<path fill="#4C80B8" d="M20.5,64.1c-1.8,0-3-0.5-3.7-1.6c-0.2-0.2-0.3-0.5-0.4-0.7c-0.2-0.3-0.3-0.6-0.5-0.8
		c-0.2-0.1-0.5-0.2-0.8-0.2c-0.2,0-0.5,0-0.7,0c-0.3,0-0.6,0-0.8,0l-0.2,0c-2.8-0.1-4.6-2.9-5.2-5.7c-0.1-0.6-0.2-1.3-0.3-1.9
		c-0.3-1.8-0.5-3.6-1.5-4.9c-0.1-0.2-0.3-0.3-0.4-0.5c-0.3-0.4-0.7-0.9-1-1.5c-0.5-1.2-0.2-2.4,0.1-3.4c0.2-0.7,0.4-1.4,0.3-2.1
		c-0.1-0.9-0.6-1.7-1.1-2.6c-0.6-1-1.2-2-1.3-3.2c-0.1-1.6,0.7-3.1,1.4-4.5c0.8-1.5,1.6-2.9,0.9-4.1c-0.2-0.3-0.4-0.6-0.7-0.9
		C4.2,25.3,4,25,3.8,24.6c-1.3-2-0.5-4.5,0.5-6.1c0.6-0.9,1.3-1.7,2.1-2.5c0.6-0.6,1.1-1.2,1.6-1.9C8.4,13.6,8.7,13,9,12.4
		c0.6-0.9,1.1-1.8,1.9-2.7c1.1-1.2,2.6-1.9,3.9-1.9c0.5,0,1,0.1,1.5,0.3c1.7,0.8,2.4,2.6,3,4.2c0.2,0.4,0.3,0.8,0.5,1.2
		c0.7,1.7,1.9,3.1,3.1,4.5c1.3,1.5,2.6,3.1,3.4,4.9c0.5,1.1,0.8,2.4,1,3.5c0.2,0.8,0.4,1.6,0.6,2.4c1.2,3.8,4.3,7,8.1,8.4
		c3.8-1.4,6.9-4.6,8.1-8.4c0.2-0.8,0.4-1.6,0.6-2.4c0.3-1.2,0.5-2.4,1-3.5c0.8-1.9,2.1-3.4,3.4-4.9c1.2-1.4,2.4-2.9,3.1-4.5
		c0.2-0.4,0.3-0.8,0.5-1.2c0.6-1.6,1.2-3.4,3-4.2c0.5-0.2,1-0.3,1.5-0.3c1.3,0,2.8,0.7,3.9,1.9c0.8,0.8,1.3,1.7,1.9,2.7
		c0.3,0.6,0.7,1.1,1.1,1.7c0.5,0.7,1.1,1.3,1.6,1.9c0.7,0.8,1.5,1.6,2.1,2.5c1,1.6,1.8,4.1,0.5,6.1c-0.2,0.3-0.5,0.6-0.7,0.9
		c-0.3,0.3-0.5,0.6-0.7,0.9c-0.6,1.2,0.1,2.6,0.9,4.1c0.7,1.3,1.4,2.6,1.4,4l0,0l-0.1,1l0,0c-0.2,1-0.7,1.9-1.3,2.7
		c-0.5,0.9-1,1.7-1.1,2.6c-0.1,0.7,0.1,1.4,0.3,2.1c0.3,1.1,0.6,2.3,0.1,3.4c-0.2,0.6-0.6,1.1-0.9,1.5c-0.1,0.2-0.3,0.3-0.4,0.5
		c-1,1.4-1.3,3.2-1.5,4.9c-0.1,0.7-0.2,1.3-0.3,2c-0.6,2.8-2.4,5.6-5.2,5.7l-0.2,0c-0.3,0-0.6,0-0.9,0c-0.2,0-0.5,0-0.7,0
		c-0.4,0-0.7,0.1-0.8,0.2c-0.2,0.2-0.4,0.5-0.5,0.8c-0.1,0.3-0.3,0.5-0.4,0.7c-0.7,1-2,1.6-3.7,1.6c-0.6,0-1.2-0.1-2-0.2l-6.8-1
		c-1.8-0.3-3.9-0.6-5.5-1.8c-0.4-0.3-0.8-0.7-1.2-1.1c-0.4,0.4-0.7,0.8-1.2,1.1c-1.7,1.2-3.7,1.5-5.5,1.8l-6.8,1
		C21.7,64,21.1,64.1,20.5,64.1z M36.6,58.5c0.4,0.7,0.9,1.2,1.4,1.5c1.4,1,3.3,1.3,4.9,1.5l6.8,1c0.7,0.1,1.3,0.2,1.8,0.2
		c1.3,0,2.1-0.3,2.6-1c0.1-0.2,0.2-0.4,0.3-0.6c0.2-0.4,0.5-0.9,0.9-1.3c0.6-0.4,1.2-0.5,1.7-0.5c0.3,0,0.6,0,0.8,0
		c0.3,0,0.5,0,0.7,0l0.1,0c2-0.1,3.4-2.4,3.9-4.6c0.1-0.6,0.2-1.3,0.3-1.9c0.3-1.9,0.6-3.9,1.8-5.5c0.1-0.2,0.3-0.4,0.4-0.6
		c0.3-0.4,0.6-0.7,0.7-1.1c0.3-0.8,0.1-1.6-0.2-2.6c-0.2-0.8-0.4-1.7-0.3-2.6c0.1-1.2,0.7-2.2,1.3-3.2c0.5-0.9,1-1.7,1.1-2.6
		c0.1-1.2-0.6-2.5-1.3-3.7c-0.9-1.6-1.9-3.5-1-5.4c0.2-0.5,0.6-0.9,0.9-1.2c0.2-0.3,0.4-0.5,0.6-0.7c0.9-1.4,0.3-3.4-0.5-4.6
		c-0.5-0.8-1.2-1.6-1.9-2.3c-0.6-0.6-1.2-1.3-1.7-2c-0.4-0.6-0.8-1.2-1.1-1.8c-0.5-0.8-1-1.7-1.7-2.4c-0.8-0.9-1.9-1.4-2.9-1.4
		c-0.3,0-0.6,0.1-0.9,0.2c-1.2,0.5-1.7,2-2.2,3.4c-0.2,0.4-0.3,0.9-0.5,1.3c-0.8,1.8-2.1,3.4-3.3,4.9C49,20.5,47.7,22,47,23.6
		c-0.4,1-0.7,2.2-0.9,3.3c-0.2,0.8-0.4,1.7-0.6,2.5c-1.4,4.3-4.9,7.9-9.2,9.4l-0.2,0.1l-0.2,0c-4.4-1.5-7.9-5.1-9.3-9.4
		c-0.3-0.8-0.4-1.7-0.6-2.5c-0.2-1.1-0.5-2.2-0.9-3.3C24.3,22,23,20.5,21.8,19c-1.3-1.5-2.5-3-3.3-4.9c-0.2-0.4-0.3-0.8-0.5-1.3
		c-0.5-1.4-1.1-2.9-2.2-3.4c-0.3-0.1-0.6-0.2-0.9-0.2c-1,0-2.1,0.6-2.9,1.4c-0.7,0.7-1.2,1.6-1.7,2.4c-0.4,0.6-0.7,1.2-1.1,1.8
		c-0.5,0.7-1.1,1.4-1.7,2c-0.7,0.7-1.4,1.5-1.9,2.3c-0.8,1.2-1.4,3.2-0.5,4.6c0.2,0.2,0.4,0.5,0.6,0.7c0.3,0.3,0.6,0.7,0.9,1.2
		c1,1.9-0.1,3.7-1,5.4c-0.7,1.2-1.4,2.5-1.3,3.7c0.1,0.9,0.6,1.7,1.1,2.6c0.6,1,1.2,2,1.3,3.2c0.1,0.9-0.1,1.7-0.3,2.6
		c-0.2,1-0.4,1.8-0.2,2.6c0.1,0.4,0.4,0.7,0.7,1.1c0.1,0.2,0.3,0.4,0.4,0.6c1.2,1.6,1.5,3.6,1.8,5.5c0.1,0.6,0.2,1.3,0.3,1.9
		c0.5,2.3,1.9,4.6,3.9,4.6l0.1,0c0.2,0,0.5,0,0.7,0c0.3,0,0.6,0,0.9,0c0.4,0,1.1,0.1,1.7,0.5c0.5,0.4,0.7,0.8,0.9,1.3
		c0.1,0.2,0.2,0.4,0.3,0.6c0.5,0.7,1.3,1,2.6,1h0c0.5,0,1.1,0,1.8-0.2l6.8-1c1.7-0.2,3.5-0.5,4.9-1.5c0.5-0.4,1-0.9,1.4-1.5l0.6-0.9
		L36.6,58.5z"/>
</g>
<g>
	<path fill="#80A5D1" d="M15.9,47.7c-1.4,0-2.5-1.1-2.5-2.5c0-1.4,1.1-2.5,2.5-2.5c1.4,0,2.4,1.1,2.4,2.5
		C18.3,46.6,17.2,47.7,15.9,47.7z M15.9,43.2c-1.1,0-2.1,0.9-2.1,2.1c0,1.1,0.9,2.1,2.1,2.1c1.1,0,2.1-0.9,2.1-2.1
		C18,44.1,17,43.2,15.9,43.2z"/>
</g>
<g>
	<path fill="#80A5D1" d="M23.4,54.6c-1.4,0-2.4-1.1-2.4-2.5c0-1.4,1.1-2.4,2.4-2.4c1.4,0,2.5,1.1,2.5,2.4
		C25.9,53.5,24.8,54.6,23.4,54.6z M23.4,50.1c-1.1,0-2.1,0.9-2.1,2.1c0,1.1,0.9,2.1,2.1,2.1c1.1,0,2.1-0.9,2.1-2.1
		C25.5,51,24.6,50.1,23.4,50.1z"/>
</g>
<g>
	<path fill="#80A5D1" d="M15.9,56.9c-1.4,0-2.5-1.1-2.5-2.5c0-1.4,1.1-2.5,2.5-2.5c1.4,0,2.4,1.1,2.4,2.5
		C18.3,55.8,17.2,56.9,15.9,56.9z M15.9,52.3c-1.1,0-2.1,0.9-2.1,2.1c0,1.1,0.9,2.1,2.1,2.1c1.1,0,2.1-0.9,2.1-2.1
		C18,53.3,17,52.3,15.9,52.3z"/>
</g>
<g>
	<path fill="#80A5D1" d="M37.6,56.9c-1.4,0-2.5-1.1-2.5-2.5c0-1.4,1.1-2.5,2.5-2.5c1.4,0,2.4,1.1,2.4,2.5
		C40.1,55.8,39,56.9,37.6,56.9z M37.6,52.3c-1.1,0-2.1,0.9-2.1,2.1c0,1.1,0.9,2.1,2.1,2.1c1.1,0,2.1-0.9,2.1-2.1
		C39.7,53.3,38.8,52.3,37.6,52.3z"/>
</g>
<g>
	<path fill="#80A5D1" d="M45.6,59.7c-1.4,0-2.4-1.1-2.4-2.4c0-1.4,1.1-2.4,2.4-2.4c1.4,0,2.5,1.1,2.5,2.4
		C48,58.6,46.9,59.7,45.6,59.7z M45.6,55.1c-1.1,0-2.1,0.9-2.1,2.1c0,1.1,0.9,2.1,2.1,2.1c1.1,0,2.1-0.9,2.1-2.1
		C47.7,56.1,46.7,55.1,45.6,55.1z"/>
</g>
<g>
	<path fill="#80A5D1" d="M52.6,57.9c-1.4,0-2.4-1.1-2.4-2.4c0-1.4,1.1-2.4,2.4-2.4c1.4,0,2.5,1.1,2.5,2.4
		C55,56.8,53.9,57.9,52.6,57.9z M52.6,53.4c-1.1,0-2.1,0.9-2.1,2.1c0,1.1,0.9,2.1,2.1,2.1c1.1,0,2.1-0.9,2.1-2.1
		C54.7,54.3,53.7,53.4,52.6,53.4z"/>
</g>
<g>
	<path fill="#80A5D1" d="M21.2,42.5c-1.4,0-2.4-1.1-2.4-2.5c0-1.4,1.1-2.4,2.4-2.4c1.4,0,2.4,1.1,2.4,2.4
		C23.6,41.4,22.5,42.5,21.2,42.5z M21.2,38c-1.1,0-2.1,0.9-2.1,2.1c0,1.1,0.9,2.1,2.1,2.1c1.1,0,2.1-0.9,2.1-2.1
		C23.2,38.9,22.3,38,21.2,38z"/>
</g>
<g>
	<path fill="#80A5D1" d="M30.6,47.7c-1.4,0-2.4-1.1-2.4-2.5c0-1.4,1.1-2.5,2.4-2.5c1.4,0,2.5,1.1,2.5,2.5
		C33.1,46.6,32,47.7,30.6,47.7z M30.6,43.2c-1.1,0-2.1,0.9-2.1,2.1c0,1.1,0.9,2.1,2.1,2.1c1.1,0,2.1-0.9,2.1-2.1
		C32.7,44.1,31.8,43.2,30.6,43.2z"/>
</g>
<g>
	<path fill="#80A5D1" d="M39.9,48.9c-1.4,0-2.4-1.1-2.4-2.4c0-1.4,1.1-2.5,2.4-2.5c1.4,0,2.4,1.1,2.4,2.5
		C42.3,47.8,41.2,48.9,39.9,48.9z M39.9,44.4c-1.1,0-2.1,0.9-2.1,2.1c0,1.1,0.9,2.1,2.1,2.1c1.1,0,2.1-0.9,2.1-2.1
		C42,45.3,41,44.4,39.9,44.4z"/>
</g>
<g>
	<path fill="#80A5D1" d="M46.6,42.5c-1.4,0-2.4-1.1-2.4-2.5c0-1.4,1.1-2.4,2.4-2.4c1.4,0,2.5,1.1,2.5,2.4
		C49,41.4,47.9,42.5,46.6,42.5z M46.6,38c-1.1,0-2.1,0.9-2.1,2.1c0,1.1,0.9,2.1,2.1,2.1c1.1,0,2.1-0.9,2.1-2.1
		C48.6,38.9,47.7,38,46.6,38z"/>
</g>
<g>
	<path fill="#80A5D1" d="M61.6,40.3c-1.4,0-2.5-1.1-2.5-2.4c0-1.4,1.1-2.5,2.5-2.5c1.4,0,2.5,1.1,2.5,2.5
		C64.1,39.2,63,40.3,61.6,40.3z M61.6,35.8c-1.1,0-2.1,0.9-2.1,2.1c0,1.1,0.9,2.1,2.1,2.1c1.1,0,2.1-0.9,2.1-2.1
		C63.7,36.7,62.8,35.8,61.6,35.8z"/>
</g>
<g>
	<path fill="#80A5D1" d="M48.8,51.1c-1.4,0-2.5-1.1-2.5-2.5c0-1.4,1.1-2.4,2.5-2.4c1.4,0,2.5,1.1,2.5,2.4
		C51.3,50,50.2,51.1,48.8,51.1z M48.8,46.6c-1.1,0-2.1,0.9-2.1,2.1c0,1.1,0.9,2.1,2.1,2.1c1.1,0,2.1-0.9,2.1-2.1
		C50.9,47.6,50,46.6,48.8,46.6z"/>
</g>
<g>
	<path fill="#80A5D1" d="M59.4,47.1c-1.4,0-2.4-1.1-2.4-2.4c0-1.4,1.1-2.4,2.4-2.4c1.4,0,2.5,1.1,2.5,2.4
		C61.8,46,60.7,47.1,59.4,47.1z M59.4,42.5c-1.1,0-2.1,0.9-2.1,2.1c0,1.1,0.9,2.1,2.1,2.1c1.1,0,2.1-0.9,2.1-2.1
		C61.4,43.5,60.5,42.5,59.4,42.5z"/>
</g>
<g>
	<path fill="#80A5D1" d="M57.1,53.4c-1.4,0-2.5-1.1-2.5-2.5c0-1.4,1.1-2.5,2.5-2.5c1.4,0,2.4,1.1,2.4,2.5
		C59.6,52.3,58.5,53.4,57.1,53.4z M57.1,48.9C56,48.9,55,49.8,55,51c0,1.1,0.9,2.1,2.1,2.1c1.1,0,2.1-0.9,2.1-2.1
		C59.2,49.8,58.3,48.9,57.1,48.9z"/>
</g>
<g>
	<path fill="#80A5D1" d="M57.1,20.4c-1.4,0-2.5-1.1-2.5-2.4c0-1.4,1.1-2.5,2.5-2.5c1.4,0,2.4,1.1,2.4,2.5
		C59.6,19.3,58.5,20.4,57.1,20.4z M57.1,15.8c-1.1,0-2.1,0.9-2.1,2.1C55,19,56,20,57.1,20c1.1,0,2.1-0.9,2.1-2.1
		C59.2,16.8,58.3,15.8,57.1,15.8z"/>
</g>
<g>
	<path fill="#80A5D1" d="M61.6,27.1c-1.4,0-2.5-1.1-2.5-2.4c0-1.4,1.1-2.5,2.5-2.5c1.4,0,2.5,1.1,2.5,2.5C64.1,26,63,27.1,61.6,27.1
		z M61.6,22.6c-1.1,0-2.1,0.9-2.1,2.1c0,1.1,0.9,2.1,2.1,2.1c1.1,0,2.1-0.9,2.1-2.1C63.7,23.5,62.8,22.6,61.6,22.6z"/>
</g>
<g>
	<path fill="#80A5D1" d="M52.6,26c-1.4,0-2.4-1.1-2.4-2.5c0-1.4,1.1-2.5,2.4-2.5c1.4,0,2.5,1.1,2.5,2.5C55,24.9,53.9,26,52.6,26z
		 M52.6,21.4c-1.1,0-2.1,0.9-2.1,2.1c0,1.1,0.9,2.1,2.1,2.1c1.1,0,2.1-0.9,2.1-2.1C54.7,22.4,53.7,21.4,52.6,21.4z"/>
</g>
<g>
	<path fill="#80A5D1" d="M57.1,33.1c-1.4,0-2.5-1.1-2.5-2.5c0-1.4,1.1-2.5,2.5-2.5c1.4,0,2.4,1.1,2.4,2.5
		C59.6,32,58.5,33.1,57.1,33.1z M57.1,28.5c-1.1,0-2.1,0.9-2.1,2.1c0,1.1,0.9,2.1,2.1,2.1c1.1,0,2.1-0.9,2.1-2.1
		C59.2,29.5,58.3,28.5,57.1,28.5z"/>
</g>
<g>
	<path fill="#80A5D1" d="M54.9,42.5c-1.4,0-2.5-1.1-2.5-2.5c0-1.4,1.1-2.4,2.5-2.4c1.4,0,2.5,1.1,2.5,2.4
		C57.3,41.4,56.2,42.5,54.9,42.5z M54.9,38c-1.1,0-2.1,0.9-2.1,2.1c0,1.1,0.9,2.1,2.1,2.1c1.1,0,2.1-0.9,2.1-2.1
		C56.9,38.9,56,38,54.9,38z"/>
</g>
<g>
	<path fill="#E68442" d="M52.6,32.9c0,1.2-1,2.3-2.3,2.3c-1.2,0-2.3-1-2.3-2.3c0-1.2,1-2.3,2.3-2.3C51.6,30.6,52.6,31.6,52.6,32.9z"
		/>
	<path fill="#E68442" d="M50.3,35.3c-1.4,0-2.4-1.1-2.4-2.4c0-1.4,1.1-2.5,2.4-2.5c1.4,0,2.4,1.1,2.4,2.5
		C52.8,34.2,51.7,35.3,50.3,35.3z M50.3,30.8c-1.1,0-2.1,0.9-2.1,2.1c0,1.1,0.9,2.1,2.1,2.1c1.1,0,2.1-0.9,2.1-2.1
		C52.4,31.7,51.5,30.8,50.3,30.8z"/>
</g>
<g>
	<path fill="#80A5D1" d="M29.6,59.1c-1.4,0-2.5-1.1-2.5-2.4c0-1.4,1.1-2.5,2.5-2.5c1.4,0,2.4,1.1,2.4,2.5C32,58,30.9,59.1,29.6,59.1
		z M29.6,54.6c-1.1,0-2.1,0.9-2.1,2.1c0,1.1,0.9,2.1,2.1,2.1c1.1,0,2.1-0.9,2.1-2.1C31.6,55.5,30.7,54.6,29.6,54.6z"/>
</g>
<g>
	<path fill="#80A5D1" d="M13.6,36.2c-1.4,0-2.5-1.1-2.5-2.5c0-1.4,1.1-2.4,2.5-2.4c1.4,0,2.5,1.1,2.5,2.4
		C16.1,35.1,15,36.2,13.6,36.2z M13.6,31.7c-1.1,0-2.1,0.9-2.1,2.1c0,1.1,0.9,2.1,2.1,2.1c1.1,0,2.1-0.9,2.1-2.1
		C15.7,32.6,14.8,31.7,13.6,31.7z"/>
</g>
<g>
	<path fill="#80A5D1" d="M15.9,27.1c-1.4,0-2.5-1.1-2.5-2.4c0-1.4,1.1-2.5,2.5-2.5c1.4,0,2.4,1.1,2.4,2.5
		C18.3,26,17.2,27.1,15.9,27.1z M15.9,22.6c-1.1,0-2.1,0.9-2.1,2.1c0,1.1,0.9,2.1,2.1,2.1c1.1,0,2.1-0.9,2.1-2.1
		C18,23.5,17,22.6,15.9,22.6z"/>
</g>
<g>
	<path fill="#80A5D1" d="M21.2,33.9c-1.4,0-2.4-1.1-2.4-2.4c0-1.4,1.1-2.4,2.4-2.4c1.4,0,2.4,1.1,2.4,2.4
		C23.6,32.8,22.5,33.9,21.2,33.9z M21.2,29.4c-1.1,0-2.1,0.9-2.1,2.1c0,1.1,0.9,2.1,2.1,2.1c1.1,0,2.1-0.9,2.1-2.1
		C23.2,30.3,22.3,29.4,21.2,29.4z"/>
</g>
<g>
	<path fill="#80A5D1" d="M15.9,19.2c-1.4,0-2.5-1.1-2.5-2.5c0-1.4,1.1-2.5,2.5-2.5c1.4,0,2.4,1.1,2.4,2.5
		C18.3,18.1,17.2,19.2,15.9,19.2z M15.9,14.6c-1.1,0-2.1,0.9-2.1,2.1c0,1.1,0.9,2.1,2.1,2.1c1.1,0,2.1-0.9,2.1-2.1
		C18,15.6,17,14.6,15.9,14.6z"/>
</g>
<g>
	<path fill="#80A5D1" d="M9.1,23.7c-1.4,0-2.5-1.1-2.5-2.5c0-1.4,1.1-2.4,2.5-2.4c1.4,0,2.4,1.1,2.4,2.4
		C11.5,22.6,10.4,23.7,9.1,23.7z M9.1,19.2C8,19.2,7,20.1,7,21.2c0,1.1,0.9,2.1,2.1,2.1c1.1,0,2.1-0.9,2.1-2.1
		C11.2,20.1,10.2,19.2,9.1,19.2z"/>
</g>
</svg>
